<?xml version="1.0" encoding="UTF-8"?>
<svg id="Layer_2" data-name="Layer 2" xmlns="http://www.w3.org/2000/svg" viewBox="0 0 39.72 37.06">
  <defs>
    <style>
      .cls-1 {
        fill: #56ba61;
        stroke-width: 0px;
      }
    </style>
  </defs>
  <g id="Isolation_Mode" data-name="Isolation Mode">
    <g>
      <g>
        <path class="cls-1" d="M13.9,17.2H0c0-3.37.85-6.8,2.66-9.93C4.47,4.14,7.01,1.68,9.93,0l6.95,12.04c-.88.51-1.64,1.24-2.18,2.18-.54.94-.8,1.97-.8,2.98Z"/>
        <path class="cls-1" d="M16.88,22.36l-6.95,12.04c6.36,3.67,13.92,3.42,19.86,0l-6.95-12.04c-1.78,1.03-4.05,1.1-5.96,0Z"/>
        <path class="cls-1" d="M22.84,12.04c1.91,1.1,2.98,3.1,2.98,5.16h13.9c0-6.86-3.57-13.52-9.93-17.2l-6.95,12.04Z"/>
      </g>
      <circle class="cls-1" cx="19.86" cy="17.2" r="3.97"/>
    </g>
  </g>
</svg>